# xmcd
#
# Track frame offsets:
#	150
#	36362
#	64306
#	81728
#	106062
#	138268
#	162282
#	186565
#	207763
#	232839
#	270357
#	294563
#	336484
#
# Disc length: 4710 seconds
#
# Revision: 1
# Processed by: cddbd v1.5.1PL0 Copyright (c) Steve Scherf et al.
# Submitted via: EasyCDDAExtractor 8.0.2.1
#
DISCID=c312640d
DTITLE=Luther Vandross - Best Of Love
DYEAR=2002
DGENRE=Slow Jam
TTITLE0=Searching
TTITLE1=The Glow Of Love
TTITLE2=Never Too Much
TTITLE3=If This World Were Mine (Featuring Cheryl Lynn)
TTITLE4=A House Is Not A Home
TTITLE5=Bad Boy-Having A Party
TTITLE6=Since I Lost My Baby
TTITLE7=Promise Me
TTITLE8='Til My Baby Comes Home
TTITLE9=If Only For One Night-Creepin'
TTITLE10=Here And Now
TTITLE11=Superstar-Until You Come Back To Me (That's What I'm Gonna Do)
TTITLE12=So Amazing
EXTD=
EXTT0=
EXTT1=
EXTT2=
EXTT3=
EXTT4=
EXTT5=
EXTT6=
EXTT7=
EXTT8=
EXTT9=
EXTT10=
EXTT11=
EXTT12=
PLAYORDER=
